<svg xmlns="http://www.w3.org/2000/svg" width="502.9789123535156" height="474.7481994628906" viewBox="-256.17510986328125 -196.19271850585938 502.9789123535156 474.7481994628906"><title>Neo4j Graph Visualization</title><desc>Created using Neo4j (http://www.neo4j.com/)</desc><g class="layer relationships"><g class="relationship" transform="translate(2.2857775358318895 37.14873104460665) rotate(451.42318029521766)"><path class="b-outline" fill="#A5ABB6" stroke="none" d="M 40 0.5 L 62.987797397263705 0.5 L 62.987797397263705 -0.5 L 40 -0.5 Z M 118.3315473972637 0.5 L 141.3193447945274 0.5 L 141.3193447945274 3.5 L 148.3193447945274 0 L 141.3193447945274 -3.5 L 141.3193447945274 -0.5 L 118.3315473972637 -0.5 Z"/><text text-anchor="middle" pointer-events="none" font-size="8px" fill="#000000" x="90.6596723972637" y="3" transform="rotate(180 90.6596723972637 0)" font-family="Helvetica Neue, Helvetica, Arial, sans-serif">HAS_CHUNK</text></g><g class="relationship" transform="translate(2.2857775358318895 37.14873104460665) rotate(428.5171440951018)"><path class="b-outline" fill="#A5ABB6" stroke="none" d="M 40 0.5 L 90.4606061489966 0.5 L 90.4606061489966 -0.5 L 40 -0.5 Z M 145.8043561489966 0.5 L 196.2649622979932 0.5 L 196.2649622979932 3.5 L 203.2649622979932 0 L 196.2649622979932 -3.5 L 196.2649622979932 -0.5 L 145.8043561489966 -0.5 Z"/><text text-anchor="middle" pointer-events="none" font-size="8px" fill="#000000" x="118.1324811489966" y="3" font-family="Helvetica Neue, Helvetica, Arial, sans-serif">HAS_CHUNK</text></g><g class="relationship" transform="translate(2.2857775358318895 37.14873104460665) rotate(416.3861621469547)"><path class="b-outline" fill="#A5ABB6" stroke="none" d="M 40 0.5 L 45.44125906496717 0.5 L 45.44125906496717 -0.5 L 40 -0.5 Z M 100.78500906496717 0.5 L 106.22626812993434 0.5 L 106.22626812993434 3.5 L 113.22626812993434 0 L 106.22626812993434 -3.5 L 106.22626812993434 -0.5 L 100.78500906496717 -0.5 Z"/><text text-anchor="middle" pointer-events="none" font-size="8px" fill="#000000" x="73.11313406496717" y="3" font-family="Helvetica Neue, Helvetica, Arial, sans-serif">HAS_CHUNK</text></g><g class="relationship" transform="translate(2.2857775358318895 37.14873104460665) rotate(380.61183535162456)"><path class="b-outline" fill="#A5ABB6" stroke="none" d="M 40 0.5 L 62.25643979860915 0.5 L 62.25643979860915 -0.5 L 40 -0.5 Z M 117.60018979860915 0.5 L 139.8566295972183 0.5 L 139.8566295972183 3.5 L 146.8566295972183 0 L 139.8566295972183 -3.5 L 139.8566295972183 -0.5 L 117.60018979860915 -0.5 Z"/><text text-anchor="middle" pointer-events="none" font-size="8px" fill="#000000" x="89.92831479860915" y="3" font-family="Helvetica Neue, Helvetica, Arial, sans-serif">HAS_CHUNK</text></g><g class="relationship" transform="translate(2.2857775358318895 37.14873104460665) rotate(347.14026461193396)"><path class="b-outline" fill="#A5ABB6" stroke="none" d="M 40 0.5 L 41.840008308289015 0.5 L 41.840008308289015 -0.5 L 40 -0.5 Z M 88.29313330828901 0.5 L 90.13314161657803 0.5 L 90.13314161657803 3.5 L 97.13314161657803 0 L 90.13314161657803 -3.5 L 90.13314161657803 -0.5 L 88.29313330828901 -0.5 Z"/><text text-anchor="middle" pointer-events="none" font-size="8px" fill="#000000" x="65.06657080828901" y="3" font-family="Helvetica Neue, Helvetica, Arial, sans-serif">HAS_CH…</text></g><g class="relationship" transform="translate(2.2857775358318895 37.14873104460665) rotate(403.5812808059011)"><path class="b-outline" fill="#A5ABB6" stroke="none" d="M 40 0.5 L 90.09324263501769 0.5 L 90.09324263501769 -0.5 L 40 -0.5 Z M 145.4369926350177 0.5 L 195.53023527003538 0.5 L 195.53023527003538 3.5 L 202.53023527003538 0 L 195.53023527003538 -3.5 L 195.53023527003538 -0.5 L 145.4369926350177 -0.5 Z"/><text text-anchor="middle" pointer-events="none" font-size="8px" fill="#000000" x="117.76511763501769" y="3" font-family="Helvetica Neue, Helvetica, Arial, sans-serif">HAS_CHUNK</text></g><g class="relationship" transform="translate(2.2857775358318895 37.14873104460665) rotate(354.434382095772)"><path class="b-outline" fill="#A5ABB6" stroke="none" d="M 40 0.5 L 84.59750683388036 0.5 L 84.59750683388036 -0.5 L 40 -0.5 Z M 139.94125683388035 0.5 L 184.53876366776072 0.5 L 184.53876366776072 3.5 L 191.53876366776072 0 L 184.53876366776072 -3.5 L 184.53876366776072 -0.5 L 139.94125683388035 -0.5 Z"/><text text-anchor="middle" pointer-events="none" font-size="8px" fill="#000000" x="112.26938183388036" y="3" font-family="Helvetica Neue, Helvetica, Arial, sans-serif">HAS_CHUNK</text></g><g class="relationship" transform="translate(2.2857775358318895 37.14873104460665) rotate(327.6262318174046)"><path class="b-outline" fill="#A5ABB6" stroke="none" d="M 40 0.5 L 78.71272198973162 0.5 L 78.71272198973162 -0.5 L 40 -0.5 Z M 134.05647198973162 0.5 L 172.76919397946324 0.5 L 172.76919397946324 3.5 L 179.76919397946324 0 L 172.76919397946324 -3.5 L 172.76919397946324 -0.5 L 134.05647198973162 -0.5 Z"/><text text-anchor="middle" pointer-events="none" font-size="8px" fill="#000000" x="106.38459698973162" y="3" font-family="Helvetica Neue, Helvetica, Arial, sans-serif">HAS_CHUNK</text></g><g class="relationship" transform="translate(2.2857775358318895 37.14873104460665) rotate(277.53156925802057)"><path class="b-outline" fill="#A5ABB6" stroke="none" d="M 40 0.5 L 79.38796446357087 0.5 L 79.38796446357087 -0.5 L 40 -0.5 Z M 134.73171446357088 0.5 L 174.11967892714173 0.5 L 174.11967892714173 3.5 L 181.11967892714173 0 L 174.11967892714173 -3.5 L 174.11967892714173 -0.5 L 134.73171446357088 -0.5 Z"/><text text-anchor="middle" pointer-events="none" font-size="8px" fill="#000000" x="107.05983946357087" y="3" font-family="Helvetica Neue, Helvetica, Arial, sans-serif">HAS_CHUNK</text></g><g class="relationship" transform="translate(2.2857775358318895 37.14873104460665) rotate(302.5122017859993)"><path class="b-outline" fill="#A5ABB6" stroke="none" d="M 40 0.5 L 93.33824265771746 0.5 L 93.33824265771746 -0.5 L 40 -0.5 Z M 148.68199265771744 0.5 L 202.02023531543492 0.5 L 202.02023531543492 3.5 L 209.02023531543492 0 L 202.02023531543492 -3.5 L 202.02023531543492 -0.5 L 148.68199265771744 -0.5 Z"/><text text-anchor="middle" pointer-events="none" font-size="8px" fill="#000000" x="121.01011765771746" y="3" font-family="Helvetica Neue, Helvetica, Arial, sans-serif">HAS_CHUNK</text></g><g class="relationship" transform="translate(2.2857775358318895 37.14873104460665) rotate(302.9184681651031)"><path class="b-outline" fill="#A5ABB6" stroke="none" d="M 40 0.5 L 45.48176730872743 0.5 L 45.48176730872743 -0.5 L 40 -0.5 Z M 100.82551730872743 0.5 L 106.30728461745485 0.5 L 106.30728461745485 3.5 L 113.30728461745485 0 L 106.30728461745485 -3.5 L 106.30728461745485 -0.5 L 100.82551730872743 -0.5 Z"/><text text-anchor="middle" pointer-events="none" font-size="8px" fill="#000000" x="73.15364230872743" y="3" font-family="Helvetica Neue, Helvetica, Arial, sans-serif">HAS_CHUNK</text></g><g class="relationship" transform="translate(2.2857775358318895 37.14873104460665) rotate(259.2388995347488)"><path class="b-outline" fill="#A5ABB6" stroke="none" d="M 40 0.5 L 42.50448669565859 0.5 L 42.50448669565859 -0.5 L 40 -0.5 Z M 88.95761169565858 0.5 L 91.46209839131718 0.5 L 91.46209839131718 3.5 L 98.46209839131718 0 L 91.46209839131718 -3.5 L 91.46209839131718 -0.5 L 88.95761169565858 -0.5 Z"/><text text-anchor="middle" pointer-events="none" font-size="8px" fill="#000000" x="65.73104919565858" y="3" transform="rotate(180 65.73104919565858 0)" font-family="Helvetica Neue, Helvetica, Arial, sans-serif">HAS_CH…</text></g><g class="relationship" transform="translate(2.2857775358318895 37.14873104460665) rotate(250.17464790097358)"><path class="b-outline" fill="#A5ABB6" stroke="none" d="M 40 0.5 L 84.56448554955277 0.5 L 84.56448554955277 -0.5 L 40 -0.5 Z M 139.90823554955278 0.5 L 184.47272109910554 0.5 L 184.47272109910554 3.5 L 191.47272109910554 0 L 184.47272109910554 -3.5 L 184.47272109910554 -0.5 L 139.90823554955278 -0.5 Z"/><text text-anchor="middle" pointer-events="none" font-size="8px" fill="#000000" x="112.23636054955277" y="3" transform="rotate(180 112.23636054955277 0)" font-family="Helvetica Neue, Helvetica, Arial, sans-serif">HAS_CHUNK</text></g><g class="relationship" transform="translate(2.2857775358318895 37.14873104460665) rotate(223.90149407299572)"><path class="b-outline" fill="#A5ABB6" stroke="none" d="M 40 0.5 L 85.56568580959438 0.5 L 85.56568580959438 -0.5 L 40 -0.5 Z M 140.90943580959438 0.5 L 186.47512161918877 0.5 L 186.47512161918877 3.5 L 193.47512161918877 0 L 186.47512161918877 -3.5 L 186.47512161918877 -0.5 L 140.90943580959438 -0.5 Z"/><text text-anchor="middle" pointer-events="none" font-size="8px" fill="#000000" x="113.23756080959438" y="3" transform="rotate(180 113.23756080959438 0)" font-family="Helvetica Neue, Helvetica, Arial, sans-serif">HAS_CHUNK</text></g><g class="relationship" transform="translate(2.2857775358318895 37.14873104460665) rotate(213.0281378978524)"><path class="b-outline" fill="#A5ABB6" stroke="none" d="M 40 0.5 L 40.06386156546567 0.5 L 40.06386156546567 -0.5 L 40 -0.5 Z M 95.40761156546567 0.5 L 95.47147313093134 0.5 L 95.47147313093134 3.5 L 102.47147313093134 0 L 95.47147313093134 -3.5 L 95.47147313093134 -0.5 L 95.40761156546567 -0.5 Z"/><text text-anchor="middle" pointer-events="none" font-size="8px" fill="#000000" x="67.73573656546567" y="3" transform="rotate(180 67.73573656546567 0)" font-family="Helvetica Neue, Helvetica, Arial, sans-serif">HAS_CHUNK</text></g><g class="relationship" transform="translate(2.2857775358318895 37.14873104460665) rotate(194.02393206028336)"><path class="b-outline" fill="#A5ABB6" stroke="none" d="M 40 0.5 L 80.83058576627553 0.5 L 80.83058576627553 -0.5 L 40 -0.5 Z M 136.17433576627553 0.5 L 177.00492153255107 0.5 L 177.00492153255107 3.5 L 184.00492153255107 0 L 177.00492153255107 -3.5 L 177.00492153255107 -0.5 L 136.17433576627553 -0.5 Z"/><text text-anchor="middle" pointer-events="none" font-size="8px" fill="#000000" x="108.50246076627553" y="3" transform="rotate(180 108.50246076627553 0)" font-family="Helvetica Neue, Helvetica, Arial, sans-serif">HAS_CHUNK</text></g><g class="relationship" transform="translate(2.2857775358318895 37.14873104460665) rotate(529.148677662956)"><path class="b-outline" fill="#A5ABB6" stroke="none" d="M 40 0.5 L 45.060917540780736 0.5 L 45.060917540780736 -0.5 L 40 -0.5 Z M 100.40466754078074 0.5 L 105.46558508156147 0.5 L 105.46558508156147 3.5 L 112.46558508156147 0 L 105.46558508156147 -3.5 L 105.46558508156147 -0.5 L 100.40466754078074 -0.5 Z"/><text text-anchor="middle" pointer-events="none" font-size="8px" fill="#000000" x="72.73279254078074" y="3" transform="rotate(180 72.73279254078074 0)" font-family="Helvetica Neue, Helvetica, Arial, sans-serif">HAS_CHUNK</text></g><g class="relationship" transform="translate(2.2857775358318895 37.14873104460665) rotate(528.9191852557381)"><path class="b-outline" fill="#A5ABB6" stroke="none" d="M 40 0.5 L 93.23811493995306 0.5 L 93.23811493995306 -0.5 L 40 -0.5 Z M 148.58186493995305 0.5 L 201.81997987990613 0.5 L 201.81997987990613 3.5 L 208.81997987990613 0 L 201.81997987990613 -3.5 L 201.81997987990613 -0.5 L 148.58186493995305 -0.5 Z"/><text text-anchor="middle" pointer-events="none" font-size="8px" fill="#000000" x="120.90998993995306" y="3" transform="rotate(180 120.90998993995306 0)" font-family="Helvetica Neue, Helvetica, Arial, sans-serif">HAS_CHUNK</text></g><g class="relationship" transform="translate(2.2857775358318895 37.14873104460665) rotate(504.23963523650673)"><path class="b-outline" fill="#A5ABB6" stroke="none" d="M 40 0.5 L 79.35173430938065 0.5 L 79.35173430938065 -0.5 L 40 -0.5 Z M 134.69548430938065 0.5 L 174.0472186187613 0.5 L 174.0472186187613 3.5 L 181.0472186187613 0 L 174.0472186187613 -3.5 L 174.0472186187613 -0.5 L 134.69548430938065 -0.5 Z"/><text text-anchor="middle" pointer-events="none" font-size="8px" fill="#000000" x="107.02360930938065" y="3" transform="rotate(180 107.02360930938065 0)" font-family="Helvetica Neue, Helvetica, Arial, sans-serif">HAS_CHUNK</text></g><g class="relationship" transform="translate(2.2857775358318895 37.14873104460665) rotate(484.6556654323155)"><path class="b-outline" fill="#A5ABB6" stroke="none" d="M 40 0.5 L 40.12757146233619 0.5 L 40.12757146233619 -0.5 L 40 -0.5 Z M 92.35804021233619 0.5 L 92.48561167467238 0.5 L 92.48561167467238 3.5 L 99.48561167467238 0 L 92.48561167467238 -3.5 L 92.48561167467238 -0.5 L 92.35804021233619 -0.5 Z"/><text text-anchor="middle" pointer-events="none" font-size="8px" fill="#000000" x="66.24280583733619" y="3" transform="rotate(180 66.24280583733619 0)" font-family="Helvetica Neue, Helvetica, Arial, sans-serif">HAS_CHU…</text></g><g class="relationship" transform="translate(2.2857775358318895 37.14873104460665) rotate(477.25371992793595)"><path class="b-outline" fill="#A5ABB6" stroke="none" d="M 40 0.5 L 85.62018614346522 0.5 L 85.62018614346522 -0.5 L 40 -0.5 Z M 140.96393614346522 0.5 L 186.58412228693044 0.5 L 186.58412228693044 3.5 L 193.58412228693044 0 L 186.58412228693044 -3.5 L 186.58412228693044 -0.5 L 140.96393614346522 -0.5 Z"/><text text-anchor="middle" pointer-events="none" font-size="8px" fill="#000000" x="113.29206114346522" y="3" transform="rotate(180 113.29206114346522 0)" font-family="Helvetica Neue, Helvetica, Arial, sans-serif">HAS_CHUNK</text></g></g><g class="layer nodes"><g class="node" aria-label="graph-node163" transform="translate(2.2857775358318895,37.14873104460665)"><circle class="b-outline" cx="0" cy="0" r="40" fill="#FFC454" stroke="#d7a013" stroke-width="2px"/><text class="caption" text-anchor="middle" pointer-events="none" x="0" y="5" font-size="10px" fill="#2A2C34" font-family="Helvetica Neue, Helvetica, Arial, sans-serif"> HSBC</text></g><g class="node" aria-label="graph-node194" transform="translate(-2.0188905293802653,210.41461087341952)"><circle class="b-outline" cx="0" cy="0" r="25" fill="#DA7194" stroke="#cc3c6c" stroke-width="2px"/><text class="caption" text-anchor="middle" pointer-events="none" x="0" y="-5" font-size="10px" fill="#FFFFFF" font-family="Helvetica Neue, Helvetica, Arial, sans-serif"> HSBC</text><text class="caption" text-anchor="middle" pointer-events="none" x="0" y="5" font-size="10px" fill="#FFFFFF" font-family="Helvetica Neue, Helvetica, Arial, sans-serif"> Bank</text><text class="caption" text-anchor="middle" pointer-events="none" x="0" y="15" font-size="10px" fill="#FFFFFF" font-family="Helvetica Neue, Helvetica, Arial, sans-serif"> conf…</text></g><g class="node" aria-label="graph-node193" transform="translate(85.88161343786494,249.55548525158713)"><circle class="b-outline" cx="0" cy="0" r="25" fill="#DA7194" stroke="#cc3c6c" stroke-width="2px"/><text class="caption" text-anchor="middle" pointer-events="none" x="0" y="-5" font-size="10px" fill="#FFFFFF" font-family="Helvetica Neue, Helvetica, Arial, sans-serif"> The</text><text class="caption" text-anchor="middle" pointer-events="none" x="0" y="5" font-size="10px" fill="#FFFFFF" font-family="Helvetica Neue, Helvetica, Arial, sans-serif"> document</text><text class="caption" text-anchor="middle" pointer-events="none" x="0" y="15" font-size="10px" fill="#FFFFFF" font-family="Helvetica Neue, Helvetica, Arial, sans-serif"> highli</text></g><g class="node" aria-label="graph-node192" transform="translate(78.80683010459607,152.26184808561518)"><circle class="b-outline" cx="0" cy="0" r="25" fill="#DA7194" stroke="#cc3c6c" stroke-width="2px"/><text class="caption" text-anchor="middle" pointer-events="none" x="0" y="-5" font-size="10px" fill="#FFFFFF" font-family="Helvetica Neue, Helvetica, Arial, sans-serif"> HSBC</text><text class="caption" text-anchor="middle" pointer-events="none" x="0" y="5" font-size="10px" fill="#FFFFFF" font-family="Helvetica Neue, Helvetica, Arial, sans-serif"> reported</text><text class="caption" text-anchor="middle" pointer-events="none" x="0" y="15" font-size="10px" fill="#FFFFFF" font-family="Helvetica Neue, Helvetica, Arial, sans-serif"> that </text></g><g class="node" aria-label="graph-node191" transform="translate(163.14132074128597,97.64827944452277)"><circle class="b-outline" cx="0" cy="0" r="25" fill="#DA7194" stroke="#cc3c6c" stroke-width="2px"/><text class="caption" text-anchor="middle" pointer-events="none" x="0" y="-5" font-size="10px" fill="#FFFFFF" font-family="Helvetica Neue, Helvetica, Arial, sans-serif"> HSBC</text><text class="caption" text-anchor="middle" pointer-events="none" x="0" y="5" font-size="10px" fill="#FFFFFF" font-family="Helvetica Neue, Helvetica, Arial, sans-serif"> Bank</text><text class="caption" text-anchor="middle" pointer-events="none" x="0" y="15" font-size="10px" fill="#FFFFFF" font-family="Helvetica Neue, Helvetica, Arial, sans-serif"> rep…</text></g><g class="node" aria-label="graph-node190" transform="translate(121.35555645987172,9.966162584003408)"><circle class="b-outline" cx="0" cy="0" r="25" fill="#DA7194" stroke="#cc3c6c" stroke-width="2px"/><text class="caption" text-anchor="middle" pointer-events="none" x="0" y="-10" font-size="10px" fill="#FFFFFF" font-family="Helvetica Neue, Helvetica, Arial, sans-serif"> The</text><text class="caption" text-anchor="middle" pointer-events="none" x="0" y="0" font-size="10px" fill="#FFFFFF" font-family="Helvetica Neue, Helvetica, Arial, sans-serif"> HSBC</text><text class="caption" text-anchor="middle" pointer-events="none" x="0" y="10" font-size="10px" fill="#FFFFFF" font-family="Helvetica Neue, Helvetica, Arial, sans-serif"> Bank</text><text class="caption" text-anchor="middle" pointer-events="none" x="0" y="20" font-size="10px" fill="#FFFFFF" font-family="Helvetica Neue, Helvetica, Arial, sans-serif">do…</text></g><g class="node" aria-label="graph-node189" transform="translate(167.10802683269677,194.00418711407136)"><circle class="b-outline" cx="0" cy="0" r="25" fill="#DA7194" stroke="#cc3c6c" stroke-width="2px"/><text class="caption" text-anchor="middle" pointer-events="none" x="0" y="-5" font-size="10px" fill="#FFFFFF" font-family="Helvetica Neue, Helvetica, Arial, sans-serif"> HSBC</text><text class="caption" text-anchor="middle" pointer-events="none" x="0" y="5" font-size="10px" fill="#FFFFFF" font-family="Helvetica Neue, Helvetica, Arial, sans-serif"> Bank</text><text class="caption" text-anchor="middle" pointer-events="none" x="0" y="15" font-size="10px" fill="#FFFFFF" font-family="Helvetica Neue, Helvetica, Arial, sans-serif"> rep…</text></g><g class="node" aria-label="graph-node188" transform="translate(217.80372948911173,16.147574966283237)"><circle class="b-outline" cx="0" cy="0" r="25" fill="#DA7194" stroke="#cc3c6c" stroke-width="2px"/><text class="caption" text-anchor="middle" pointer-events="none" x="0" y="-5" font-size="10px" fill="#FFFFFF" font-family="Helvetica Neue, Helvetica, Arial, sans-serif"> In its</text><text class="caption" text-anchor="middle" pointer-events="none" x="0" y="5" font-size="10px" fill="#FFFFFF" font-family="Helvetica Neue, Helvetica, Arial, sans-serif"> recent</text><text class="caption" text-anchor="middle" pointer-events="none" x="0" y="15" font-size="10px" fill="#FFFFFF" font-family="Helvetica Neue, Helvetica, Arial, sans-serif"> repor</text></g><g class="node" aria-label="graph-node187" transform="translate(175.2283418305898,-72.49292280169652)"><circle class="b-outline" cx="0" cy="0" r="25" fill="#DA7194" stroke="#cc3c6c" stroke-width="2px"/><text class="caption" text-anchor="middle" pointer-events="none" x="0" y="-5" font-size="10px" fill="#FFFFFF" font-family="Helvetica Neue, Helvetica, Arial, sans-serif"> HSBC</text><text class="caption" text-anchor="middle" pointer-events="none" x="0" y="5" font-size="10px" fill="#FFFFFF" font-family="Helvetica Neue, Helvetica, Arial, sans-serif"> reports</text><text class="caption" text-anchor="middle" pointer-events="none" x="0" y="15" font-size="10px" fill="#FFFFFF" font-family="Helvetica Neue, Helvetica, Arial, sans-serif"> stro…</text></g><g class="node" aria-label="graph-node186" transform="translate(29.302388042125973,-167.19271065966242)"><circle class="b-outline" cx="0" cy="0" r="25" fill="#DA7194" stroke="#cc3c6c" stroke-width="2px"/><text class="caption" text-anchor="middle" pointer-events="none" x="0" y="-15" font-size="10px" fill="#FFFFFF" font-family="Helvetica Neue, Helvetica, Arial, sans-serif"> In</text><text class="caption" text-anchor="middle" pointer-events="none" x="0" y="-5" font-size="10px" fill="#FFFFFF" font-family="Helvetica Neue, Helvetica, Arial, sans-serif"> Q1,</text><text class="caption" text-anchor="middle" pointer-events="none" x="0" y="5" font-size="10px" fill="#FFFFFF" font-family="Helvetica Neue, Helvetica, Arial, sans-serif"> HSBC</text><text class="caption" text-anchor="middle" pointer-events="none" x="0" y="15" font-size="10px" fill="#FFFFFF" font-family="Helvetica Neue, Helvetica, Arial, sans-serif"> Bank</text><text class="caption" text-anchor="middle" pointer-events="none" x="0" y="25" font-size="10px" fill="#FFFFFF" font-family="Helvetica Neue, Helvetica, Arial, sans-serif">re…</text></g><g class="node" aria-label="graph-node185" transform="translate(128.06678778571236,-160.19515155024604)"><circle class="b-outline" cx="0" cy="0" r="25" fill="#DA7194" stroke="#cc3c6c" stroke-width="2px"/><text class="caption" text-anchor="middle" pointer-events="none" x="0" y="-5" font-size="10px" fill="#FFFFFF" font-family="Helvetica Neue, Helvetica, Arial, sans-serif"> HSBC</text><text class="caption" text-anchor="middle" pointer-events="none" x="0" y="5" font-size="10px" fill="#FFFFFF" font-family="Helvetica Neue, Helvetica, Arial, sans-serif"> increased</text><text class="caption" text-anchor="middle" pointer-events="none" x="0" y="15" font-size="10px" fill="#FFFFFF" font-family="Helvetica Neue, Helvetica, Arial, sans-serif"> its </text></g><g class="node" aria-label="graph-node184" transform="translate(77.44818765870474,-78.95259144043109)"><circle class="b-outline" cx="0" cy="0" r="25" fill="#DA7194" stroke="#cc3c6c" stroke-width="2px"/><text class="caption" text-anchor="middle" pointer-events="none" x="0" y="-5" font-size="10px" fill="#FFFFFF" font-family="Helvetica Neue, Helvetica, Arial, sans-serif"> HSBC</text><text class="caption" text-anchor="middle" pointer-events="none" x="0" y="5" font-size="10px" fill="#FFFFFF" font-family="Helvetica Neue, Helvetica, Arial, sans-serif"> observes</text><text class="caption" text-anchor="middle" pointer-events="none" x="0" y="15" font-size="10px" fill="#FFFFFF" font-family="Helvetica Neue, Helvetica, Arial, sans-serif"> that </text></g><g class="node" aria-label="graph-node183" transform="translate(-20.76637064591841,-84.14219278481231)"><circle class="b-outline" cx="0" cy="0" r="25" fill="#DA7194" stroke="#cc3c6c" stroke-width="2px"/><text class="caption" text-anchor="middle" pointer-events="none" x="0" y="-5" font-size="10px" fill="#FFFFFF" font-family="Helvetica Neue, Helvetica, Arial, sans-serif"> HSBC</text><text class="caption" text-anchor="middle" pointer-events="none" x="0" y="5" font-size="10px" fill="#FFFFFF" font-family="Helvetica Neue, Helvetica, Arial, sans-serif"> reported</text><text class="caption" text-anchor="middle" pointer-events="none" x="0" y="15" font-size="10px" fill="#FFFFFF" font-family="Helvetica Neue, Helvetica, Arial, sans-serif"> stage</text></g><g class="node" aria-label="graph-node182" transform="translate(-71.1318562521284,-166.49382351859876)"><circle class="b-outline" cx="0" cy="0" r="25" fill="#DA7194" stroke="#cc3c6c" stroke-width="2px"/><text class="caption" text-anchor="middle" pointer-events="none" x="0" y="-5" font-size="10px" fill="#FFFFFF" font-family="Helvetica Neue, Helvetica, Arial, sans-serif"> In HSBC</text><text class="caption" text-anchor="middle" pointer-events="none" x="0" y="5" font-size="10px" fill="#FFFFFF" font-family="Helvetica Neue, Helvetica, Arial, sans-serif"> Bank's Q1</text><text class="caption" text-anchor="middle" pointer-events="none" x="0" y="15" font-size="10px" fill="#FFFFFF" font-family="Helvetica Neue, Helvetica, Arial, sans-serif"> 2</text></g><g class="node" aria-label="graph-node181" transform="translate(-155.1327638125693,-114.346422693924)"><circle class="b-outline" cx="0" cy="0" r="25" fill="#DA7194" stroke="#cc3c6c" stroke-width="2px"/><text class="caption" text-anchor="middle" pointer-events="none" x="0" y="-5" font-size="10px" fill="#FFFFFF" font-family="Helvetica Neue, Helvetica, Arial, sans-serif"> HSBC</text><text class="caption" text-anchor="middle" pointer-events="none" x="0" y="5" font-size="10px" fill="#FFFFFF" font-family="Helvetica Neue, Helvetica, Arial, sans-serif"> has</text><text class="caption" text-anchor="middle" pointer-events="none" x="0" y="15" font-size="10px" fill="#FFFFFF" font-family="Helvetica Neue, Helvetica, Arial, sans-serif"> dow…</text></g><g class="node" aria-label="graph-node180" transform="translate(-104.58668733419431,-32.32970240617553)"><circle class="b-outline" cx="0" cy="0" r="25" fill="#DA7194" stroke="#cc3c6c" stroke-width="2px"/><text class="caption" text-anchor="middle" pointer-events="none" x="0" y="-5" font-size="10px" fill="#FFFFFF" font-family="Helvetica Neue, Helvetica, Arial, sans-serif"> HSBC</text><text class="caption" text-anchor="middle" pointer-events="none" x="0" y="5" font-size="10px" fill="#FFFFFF" font-family="Helvetica Neue, Helvetica, Arial, sans-serif"> reported a</text><text class="caption" text-anchor="middle" pointer-events="none" x="0" y="15" font-size="10px" fill="#FFFFFF" font-family="Helvetica Neue, Helvetica, Arial, sans-serif"> 2% </text></g><g class="node" aria-label="graph-node179" transform="translate(-200.48966713964356,-13.49883811217543)"><circle class="b-outline" cx="0" cy="0" r="25" fill="#DA7194" stroke="#cc3c6c" stroke-width="2px"/><text class="caption" text-anchor="middle" pointer-events="none" x="0" y="0" font-size="10px" fill="#FFFFFF" font-family="Helvetica Neue, Helvetica, Arial, sans-serif"> In the first</text><text class="caption" text-anchor="middle" pointer-events="none" x="0" y="10" font-size="10px" fill="#FFFFFF" font-family="Helvetica Neue, Helvetica, Arial, sans-serif"> quarte</text></g><g class="node" aria-label="graph-node178" transform="translate(-132.7217869358434,63.0281556371755)"><circle class="b-outline" cx="0" cy="0" r="25" fill="#DA7194" stroke="#cc3c6c" stroke-width="2px"/><text class="caption" text-anchor="middle" pointer-events="none" x="0" y="-5" font-size="10px" fill="#FFFFFF" font-family="Helvetica Neue, Helvetica, Arial, sans-serif"> In a</text><text class="caption" text-anchor="middle" pointer-events="none" x="0" y="5" font-size="10px" fill="#FFFFFF" font-family="Helvetica Neue, Helvetica, Arial, sans-serif"> document</text><text class="caption" text-anchor="middle" pointer-events="none" x="0" y="15" font-size="10px" fill="#FFFFFF" font-family="Helvetica Neue, Helvetica, Arial, sans-serif"> from </text></g><g class="node" aria-label="graph-node177" transform="translate(-227.17511380073577,82.08738187067829)"><circle class="b-outline" cx="0" cy="0" r="25" fill="#DA7194" stroke="#cc3c6c" stroke-width="2px"/><text class="caption" text-anchor="middle" pointer-events="none" x="0" y="-10" font-size="10px" fill="#FFFFFF" font-family="Helvetica Neue, Helvetica, Arial, sans-serif"> In</text><text class="caption" text-anchor="middle" pointer-events="none" x="0" y="0" font-size="10px" fill="#FFFFFF" font-family="Helvetica Neue, Helvetica, Arial, sans-serif"> HSBC</text><text class="caption" text-anchor="middle" pointer-events="none" x="0" y="10" font-size="10px" fill="#FFFFFF" font-family="Helvetica Neue, Helvetica, Arial, sans-serif"> Bank's</text><text class="caption" text-anchor="middle" pointer-events="none" x="0" y="20" font-size="10px" fill="#FFFFFF" font-family="Helvetica Neue, Helvetica, Arial, sans-serif">fi…</text></g><g class="node" aria-label="graph-node176" transform="translate(-164.91500421771792,157.56199809408676)"><circle class="b-outline" cx="0" cy="0" r="25" fill="#DA7194" stroke="#cc3c6c" stroke-width="2px"/><text class="caption" text-anchor="middle" pointer-events="none" x="0" y="0" font-size="10px" fill="#FFFFFF" font-family="Helvetica Neue, Helvetica, Arial, sans-serif"> After 37</text><text class="caption" text-anchor="middle" pointer-events="none" x="0" y="10" font-size="10px" fill="#FFFFFF" font-family="Helvetica Neue, Helvetica, Arial, sans-serif">wi…</text></g><g class="node" aria-label="graph-node175" transform="translate(-68.50211792257383,139.54864008063632)"><circle class="b-outline" cx="0" cy="0" r="25" fill="#DA7194" stroke="#cc3c6c" stroke-width="2px"/><text class="caption" text-anchor="middle" pointer-events="none" x="0" y="-5" font-size="10px" fill="#FFFFFF" font-family="Helvetica Neue, Helvetica, Arial, sans-serif"> HSBC</text><text class="caption" text-anchor="middle" pointer-events="none" x="0" y="5" font-size="10px" fill="#FFFFFF" font-family="Helvetica Neue, Helvetica, Arial, sans-serif"> reported a</text><text class="caption" text-anchor="middle" pointer-events="none" x="0" y="15" font-size="10px" fill="#FFFFFF" font-family="Helvetica Neue, Helvetica, Arial, sans-serif"> $24</text></g><g class="node" aria-label="graph-node164" transform="translate(-97.81080665795294,231.46726425408798)"><circle class="b-outline" cx="0" cy="0" r="25" fill="#DA7194" stroke="#cc3c6c" stroke-width="2px"/><text class="caption" text-anchor="middle" pointer-events="none" x="0" y="-10" font-size="10px" fill="#FFFFFF" font-family="Helvetica Neue, Helvetica, Arial, sans-serif"> In a</text><text class="caption" text-anchor="middle" pointer-events="none" x="0" y="0" font-size="10px" fill="#FFFFFF" font-family="Helvetica Neue, Helvetica, Arial, sans-serif"> recent</text><text class="caption" text-anchor="middle" pointer-events="none" x="0" y="10" font-size="10px" fill="#FFFFFF" font-family="Helvetica Neue, Helvetica, Arial, sans-serif"> HSBC</text><text class="caption" text-anchor="middle" pointer-events="none" x="0" y="20" font-size="10px" fill="#FFFFFF" font-family="Helvetica Neue, Helvetica, Arial, sans-serif">Ba…</text></g></g></svg>